{
  "accessors": [
    {
      "bufferView": 2,
      "componentType": 5126,
      "count": 968,
      "max": [
        5.973937511444092,
        1.7037628889083862,
        5.907373428344727
      ],
      "min": [
        -5.973937034606934,
        -1.703748345375061,
        -5.907413005828857
      ],
      "type": "VEC3"
    },
    {
      "bufferView": 2,
      "byteOffset": 11616,
      "componentType": 5126,
      "count": 968,
      "max": [
        0.9874082803726196,
        0.9962078928947449,
        0.9778012037277222
      ],
      "min": [
        -0.9874082803726196,
        -0.9962189197540283,
        -0.977801501750946
      ],
      "type": "VEC3"
    },
    {
      "bufferView": 3,
      "componentType": 5126,
      "count": 968,
      "max": [
        0.9961957335472107,
        0.9874082207679749,
        1.0,
        1.0
      ],
      "min": [
        -0.9962188601493835,
        -0.9874082803726196,
        -1.0,
        1.0
      ],
      "type": "VEC4"
    },
    {
      "bufferView": 1,
      "componentType": 5126,
      "count": 968,
      "max": [
        0.9836419820785522,
        0.9996479749679565
      ],
      "min": [
        0.00035200000274926424,
        0.00035200000274926424
      ],
      "type": "VEC2"
    },
    {
      "bufferView": 1,
      "byteOffset": 7744,
      "componentType": 5126,
      "count": 968,
      "max": [
        0.9836419820785522,
        0.9996479749679565
      ],
      "min": [
        0.00035200000274926424,
        0.00035200000274926424
      ],
      "type": "VEC2"
    },
    {
      "bufferView": 1,
      "byteOffset": 15488,
      "componentType": 5126,
      "count": 968,
      "max": [
        0.9836419820785522,
        0.9996479749679565
      ],
      "min": [
        0.00035200000274926424,
        0.00035200000274926424
      ],
      "type": "VEC2"
    },
    {
      "bufferView": 0,
      "componentType": 5125,
      "count": 3396,
      "type": "SCALAR"
    }
  ],
  "asset": {
    "extras": {
      "author": "Twisty_z (https://sketchfab.com/Twisty_z)",
      "license": "CC-BY-4.0 (http://creativecommons.org/licenses/by/4.0/)",
      "source": "https://sketchfab.com/3d-models/mario-coin-d996949955ee46c18edeb8ecb45c3ca3",
      "title": "Mario Coin"
    },
    "generator": "Sketchfab-12.67.0",
    "version": "2.0"
  },
  "bufferViews": [
    {
      "buffer": 0,
      "byteLength": 13584,
      "name": "floatBufferViews",
      "target": 34963
    },
    {
      "buffer": 0,
      "byteLength": 23232,
      "byteOffset": 13584,
      "byteStride": 8,
      "name": "floatBufferViews",
      "target": 34962
    },
    {
      "buffer": 0,
      "byteLength": 23232,
      "byteOffset": 36816,
      "byteStride": 12,
      "name": "floatBufferViews",
      "target": 34962
    },
    {
      "buffer": 0,
      "byteLength": 15488,
      "byteOffset": 60048,
      "byteStride": 16,
      "name": "floatBufferViews",
      "target": 34962
    }
  ],
  "buffers": [
    {
      "byteLength": 75536,
      "uri": "scene.bin"
    }
  ],
  "images": [
    {
      "uri": "textures/Mario_Coin_baseColor.png"
    },
    {
      "uri": "textures/Mario_Coin_metallicRoughness.png"
    },
    {
      "uri": "textures/Mario_Coin_normal.png"
    }
  ],
  "materials": [
    {
      "doubleSided": true,
      "name": "Mario_Coin",
      "normalTexture": {
        "index": 2
      },
      "pbrMetallicRoughness": {
        "baseColorTexture": {
          "index": 0
        },
        "metallicRoughnessTexture": {
          "index": 1
        },
        "roughnessFactor": 0.29360025190099426
      }
    }
  ],
  "meshes": [
    {
      "name": "Mario Coin_Mario_Coin_0",
      "primitives": [
        {
          "attributes": {
            "NORMAL": 1,
            "POSITION": 0,
            "TANGENT": 2,
            "TEXCOORD_0": 3,
            "TEXCOORD_1": 4,
            "TEXCOORD_2": 5
          },
          "indices": 6,
          "material": 0,
          "mode": 4
        }
      ]
    }
  ],
  "nodes": [
    {
      "children": [
        1
      ],
      "matrix": [
        1.0,
        0.0,
        0.0,
        0.0,
        0.0,
        2.220446049250313e-16,
        -1.0,
        0.0,
        0.0,
        1.0,
        2.220446049250313e-16,
        0.0,
        0.0,
        0.0,
        0.0,
        1.0
      ],
      "name": "Sketchfab_model"
    },
    {
      "children": [
        2
      ],
      "matrix": [
        0.009999999776482582,
        0.0,
        0.0,
        0.0,
        0.0,
        0.0,
        0.009999999776482582,
        0.0,
        0.0,
        -0.009999999776482582,
        0.0,
        0.0,
        0.0,
        0.0,
        0.0,
        1.0
      ],
      "name": "Mario Coin.fbx"
    },
    {
      "children": [
        3
      ],
      "name": "RootNode"
    },
    {
      "children": [
        4
      ],
      "matrix": [
        100.0,
        0.0,
        0.0,
        0.0,
        0.0,
        -1.629206793918314e-05,
        -99.99999999999868,
        0.0,
        0.0,
        99.99999999999868,
        -1.629206793918314e-05,
        0.0,
        0.007635638117790222,
        0.019227661192417145,
        -0.0014267336810007691,
        1.0
      ],
      "name": "Mario Coin"
    },
    {
      "mesh": 0,
      "name": "Mario Coin_Mario_Coin_0"
    }
  ],
  "samplers": [
    {
      "magFilter": 9729,
      "minFilter": 9987,
      "wrapS": 33071,
      "wrapT": 33071
    },
    {
      "magFilter": 9729,
      "minFilter": 9987,
      "wrapS": 10497,
      "wrapT": 10497
    }
  ],
  "scene": 0,
  "scenes": [
    {
      "name": "Sketchfab_Scene",
      "nodes": [
        0
      ]
    }
  ],
  "textures": [
    {
      "sampler": 0,
      "source": 0
    },
    {
      "sampler": 1,
      "source": 1
    },
    {
      "sampler": 1,
      "source": 2
    }
  ]
}
